<svg width="240" height="44" viewBox="0 0 240 44" fill="none" xmlns="http://www.w3.org/2000/svg">
<g filter="url(#filter0_d)">
<path d="M11.676 29.432C10.164 29.432 8.724 29.216 7.356 28.784C6.012 28.328 4.908 27.656 4.044 26.768L6.24 23.06L6.42 22.772L6.78 22.988C6.828 23.156 6.888 23.336 6.96 23.528C7.056 23.696 7.248 23.912 7.536 24.176C8.112 24.608 8.748 24.956 9.444 25.22C10.164 25.484 10.92 25.628 11.712 25.652C12.768 25.676 13.62 25.484 14.268 25.076C14.916 24.644 15.24 23.972 15.24 23.06C15.24 22.628 15.144 22.22 14.952 21.836C14.76 21.452 14.364 21.044 13.764 20.612C13.164 20.18 12.276 19.688 11.1 19.136C9.54 18.416 8.304 17.72 7.392 17.048C6.504 16.352 5.868 15.608 5.484 14.816C5.1 14 4.908 13.064 4.908 12.008C4.908 10.904 5.22 9.92 5.844 9.056C6.492 8.168 7.368 7.472 8.472 6.968C9.576 6.44 10.812 6.176 12.18 6.176C15.036 6.176 17.376 7.148 19.2 9.092L16.464 12.116L16.248 12.368L15.96 12.116C15.936 11.924 15.888 11.744 15.816 11.576C15.768 11.384 15.624 11.144 15.384 10.856C14.952 10.472 14.496 10.22 14.016 10.1C13.536 9.956 12.984 9.884 12.36 9.884C11.448 9.884 10.728 10.088 10.2 10.496C9.672 10.88 9.408 11.336 9.408 11.864C9.408 12.272 9.492 12.644 9.66 12.98C9.852 13.316 10.26 13.688 10.884 14.096C11.508 14.504 12.468 15.008 13.764 15.608C15.3 16.352 16.5 17.06 17.364 17.732C18.252 18.404 18.876 19.148 19.236 19.964C19.596 20.756 19.776 21.704 19.776 22.808C19.776 23.936 19.488 25.004 18.912 26.012C18.36 26.996 17.484 27.812 16.284 28.46C15.084 29.108 13.548 29.432 11.676 29.432ZM23.844 29V25.4H27.912V15.716H24.024V12.152H32.52V25.4H36.228V29H23.844ZM30 9.596C29.232 9.596 28.572 9.344 28.02 8.84C27.492 8.312 27.228 7.688 27.228 6.968C27.228 6.2 27.48 5.564 27.984 5.06C28.512 4.556 29.184 4.304 30 4.304C30.744 4.304 31.392 4.568 31.944 5.096C32.52 5.624 32.808 6.248 32.808 6.968C32.808 7.688 32.52 8.312 31.944 8.84C31.392 9.344 30.744 9.596 30 9.596ZM40.008 29V12.152H43.752V13.232C44.16 12.68 44.604 12.296 45.084 12.08C45.564 11.864 46.044 11.756 46.524 11.756C47.076 11.756 47.604 11.888 48.108 12.152C48.636 12.416 49.056 12.92 49.368 13.664C50.112 12.392 51.264 11.756 52.824 11.756C54.072 11.756 54.96 12.2 55.488 13.088C56.04 13.952 56.316 15.164 56.316 16.724V29H52.428V17.588C52.428 16.628 52.356 15.968 52.212 15.608C52.092 15.224 51.888 15.032 51.6 15.032C51.192 15.032 50.82 15.308 50.484 15.86C50.148 16.412 49.98 17.228 49.98 18.308V29H46.344V17.66C46.344 16.58 46.272 15.86 46.128 15.5C45.984 15.116 45.732 14.924 45.372 14.924C44.964 14.924 44.616 15.2 44.328 15.752C44.04 16.28 43.896 17.06 43.896 18.092V29H40.008ZM58.584 35.012L58.548 12.116H63.048V14.168C63.624 13.328 64.296 12.716 65.064 12.332C65.856 11.948 66.72 11.756 67.656 11.756C68.88 11.756 69.984 12.104 70.968 12.8C71.952 13.472 72.732 14.468 73.308 15.788C73.908 17.108 74.208 18.74 74.208 20.684C74.208 22.652 73.896 24.284 73.272 25.58C72.672 26.876 71.868 27.848 70.86 28.496C69.852 29.12 68.76 29.432 67.584 29.432C66.72 29.432 65.88 29.3 65.064 29.036C64.272 28.772 63.648 28.364 63.192 27.812V35.012H58.584ZM66.216 25.976C67.248 25.976 68.088 25.568 68.736 24.752C69.384 23.936 69.708 22.484 69.708 20.396C69.708 18.812 69.408 17.576 68.808 16.688C68.232 15.776 67.428 15.308 66.396 15.284C65.316 15.26 64.512 15.692 63.984 16.58C63.456 17.468 63.192 18.872 63.192 20.792C63.216 22.568 63.468 23.876 63.948 24.716C64.428 25.556 65.184 25.976 66.216 25.976ZM77.052 29V25.4H81.732V8.372H77.268V4.772H86.34V25.4H90.948V29H77.052ZM97.5 35.336C96.684 35.336 95.964 35.204 95.34 34.94C94.716 34.676 94.08 34.28 93.432 33.752L94.98 30.584L95.088 30.296L95.412 30.44C95.508 30.632 95.604 30.812 95.7 30.98C95.796 31.172 96.012 31.376 96.348 31.592C96.684 31.784 97.056 31.88 97.464 31.88C98.112 31.88 98.64 31.604 99.048 31.052C99.456 30.5 99.888 29.6 100.344 28.352L100.38 28.28L93.936 12.152H98.472L102.468 22.52L104.124 17.876C104.484 16.892 104.772 15.944 104.988 15.032C105.228 14.096 105.36 13.136 105.384 12.152H109.56C109.488 13.232 109.236 14.384 108.804 15.608C108.396 16.808 107.988 17.96 107.58 19.064L103.404 30.332C102.732 32.18 101.904 33.476 100.92 34.22C99.96 34.964 98.82 35.336 97.5 35.336Z" fill="#645CFF"/>
<path d="M112.476 29V6.572H119.748C122.508 6.572 124.536 7.184 125.832 8.408C127.152 9.608 127.812 11.204 127.812 13.196C127.812 14.444 127.44 15.656 126.696 16.832C125.952 18.008 124.956 18.848 123.708 19.352L128.424 29H123.672L119.244 19.892H117.12V29H112.476ZM117.12 16.112H120C121.008 16.112 121.776 15.872 122.304 15.392C122.856 14.888 123.132 14.204 123.132 13.34C123.132 12.572 122.856 11.9 122.304 11.324C121.776 10.748 121.008 10.46 120 10.46H117.12V16.112ZM138.72 29.432C137.112 29.432 135.672 29.084 134.4 28.388C133.128 27.692 132.12 26.696 131.376 25.4C130.632 24.104 130.26 22.544 130.26 20.72C130.26 18.848 130.62 17.252 131.34 15.932C132.06 14.588 133.02 13.556 134.22 12.836C135.444 12.116 136.8 11.756 138.288 11.756C139.608 11.756 140.82 12.068 141.924 12.692C143.028 13.316 143.916 14.24 144.588 15.464C145.284 16.688 145.632 18.2 145.632 20C145.632 20.264 145.62 20.588 145.596 20.972C145.596 21.356 145.596 21.68 145.596 21.944H134.688C134.736 22.856 134.964 23.6 135.372 24.176C135.804 24.752 136.332 25.184 136.956 25.472C137.604 25.736 138.264 25.868 138.936 25.868C139.68 25.868 140.376 25.772 141.024 25.58C141.672 25.364 142.284 24.956 142.86 24.356L145.164 26.624C144.324 27.608 143.352 28.328 142.248 28.784C141.168 29.216 139.992 29.432 138.72 29.432ZM134.724 18.524H141.24C141.24 17.468 140.964 16.676 140.412 16.148C139.86 15.596 139.092 15.32 138.108 15.32C137.244 15.32 136.5 15.584 135.876 16.112C135.252 16.616 134.868 17.42 134.724 18.524ZM156.936 29.432C155.28 29.432 153.792 29.06 152.472 28.316C151.152 27.572 150.108 26.552 149.34 25.256C148.596 23.936 148.224 22.436 148.224 20.756C148.224 19.1 148.596 17.588 149.34 16.22C150.108 14.852 151.152 13.772 152.472 12.98C153.792 12.164 155.292 11.756 156.972 11.756C158.58 11.756 159.972 12.044 161.148 12.62C162.324 13.196 163.26 14.012 163.956 15.068L161.472 17.804L161.22 18.056L160.932 17.84C160.932 17.648 160.908 17.456 160.86 17.264C160.812 17.048 160.668 16.784 160.428 16.472C159.996 16.064 159.504 15.776 158.952 15.608C158.424 15.44 157.812 15.356 157.116 15.356C155.988 15.356 154.992 15.824 154.128 16.76C153.264 17.696 152.832 19.04 152.832 20.792C152.832 21.848 153.036 22.748 153.444 23.492C153.852 24.236 154.38 24.812 155.028 25.22C155.7 25.604 156.396 25.796 157.116 25.796C157.836 25.796 158.544 25.652 159.24 25.364C159.96 25.052 160.656 24.5 161.328 23.708L163.812 26.588C162.9 27.596 161.82 28.328 160.572 28.784C159.348 29.216 158.136 29.432 156.936 29.432ZM167.844 29V25.4H171.912V15.716H168.024V12.152H176.52V25.4H180.228V29H167.844ZM174 9.596C173.232 9.596 172.572 9.344 172.02 8.84C171.492 8.312 171.228 7.688 171.228 6.968C171.228 6.2 171.48 5.564 171.984 5.06C172.512 4.556 173.184 4.304 174 4.304C174.744 4.304 175.392 4.568 175.944 5.096C176.52 5.624 176.808 6.248 176.808 6.968C176.808 7.688 176.52 8.312 175.944 8.84C175.392 9.344 174.744 9.596 174 9.596ZM184.584 35.012L184.548 12.116H189.048V14.168C189.624 13.328 190.296 12.716 191.064 12.332C191.856 11.948 192.72 11.756 193.656 11.756C194.88 11.756 195.984 12.104 196.968 12.8C197.952 13.472 198.732 14.468 199.308 15.788C199.908 17.108 200.208 18.74 200.208 20.684C200.208 22.652 199.896 24.284 199.272 25.58C198.672 26.876 197.868 27.848 196.86 28.496C195.852 29.12 194.76 29.432 193.584 29.432C192.72 29.432 191.88 29.3 191.064 29.036C190.272 28.772 189.648 28.364 189.192 27.812V35.012H184.584ZM192.216 25.976C193.248 25.976 194.088 25.568 194.736 24.752C195.384 23.936 195.708 22.484 195.708 20.396C195.708 18.812 195.408 17.576 194.808 16.688C194.232 15.776 193.428 15.308 192.396 15.284C191.316 15.26 190.512 15.692 189.984 16.58C189.456 17.468 189.192 18.872 189.192 20.792C189.216 22.568 189.468 23.876 189.948 24.716C190.428 25.556 191.184 25.976 192.216 25.976ZM210.72 29.432C209.112 29.432 207.672 29.084 206.4 28.388C205.128 27.692 204.12 26.696 203.376 25.4C202.632 24.104 202.26 22.544 202.26 20.72C202.26 18.848 202.62 17.252 203.34 15.932C204.06 14.588 205.02 13.556 206.22 12.836C207.444 12.116 208.8 11.756 210.288 11.756C211.608 11.756 212.82 12.068 213.924 12.692C215.028 13.316 215.916 14.24 216.588 15.464C217.284 16.688 217.632 18.2 217.632 20C217.632 20.264 217.62 20.588 217.596 20.972C217.596 21.356 217.596 21.68 217.596 21.944H206.688C206.736 22.856 206.964 23.6 207.372 24.176C207.804 24.752 208.332 25.184 208.956 25.472C209.604 25.736 210.264 25.868 210.936 25.868C211.68 25.868 212.376 25.772 213.024 25.58C213.672 25.364 214.284 24.956 214.86 24.356L217.164 26.624C216.324 27.608 215.352 28.328 214.248 28.784C213.168 29.216 211.992 29.432 210.72 29.432ZM206.724 18.524H213.24C213.24 17.468 212.964 16.676 212.412 16.148C211.86 15.596 211.092 15.32 210.108 15.32C209.244 15.32 208.5 15.584 207.876 16.112C207.252 16.616 206.868 17.42 206.724 18.524ZM228.432 29.432C226.824 29.432 225.348 29.228 224.004 28.82C222.684 28.388 221.508 27.692 220.476 26.732L222.384 23.132L222.528 22.844L222.852 23.024C222.9 23.192 222.96 23.384 223.032 23.6C223.128 23.792 223.32 24.02 223.608 24.284C224.232 24.788 224.928 25.184 225.696 25.472C226.488 25.736 227.412 25.868 228.468 25.868C229.38 25.868 230.088 25.724 230.592 25.436C231.096 25.124 231.348 24.74 231.348 24.284C231.348 23.78 231.036 23.384 230.412 23.096C229.812 22.808 228.84 22.472 227.496 22.088C225.672 21.608 224.22 20.96 223.14 20.144C222.084 19.328 221.556 18.212 221.556 16.796C221.556 15.86 221.832 15.008 222.384 14.24C222.96 13.472 223.752 12.872 224.76 12.44C225.792 11.984 226.98 11.756 228.324 11.756C231.084 11.756 233.352 12.608 235.128 14.312L232.968 17.408L232.752 17.696L232.428 17.444C232.404 17.276 232.344 17.108 232.248 16.94C232.176 16.748 232.008 16.52 231.744 16.256C231.264 15.92 230.736 15.68 230.16 15.536C229.584 15.392 228.996 15.32 228.396 15.32C227.628 15.32 226.968 15.44 226.416 15.68C225.864 15.92 225.588 16.28 225.588 16.76C225.588 17.216 225.9 17.588 226.524 17.876C227.172 18.164 228.18 18.476 229.548 18.812C231.564 19.268 233.04 19.928 233.976 20.792C234.912 21.656 235.38 22.748 235.38 24.068C235.38 25.028 235.104 25.916 234.552 26.732C234.024 27.548 233.244 28.208 232.212 28.712C231.18 29.192 229.92 29.432 228.432 29.432Z" fill="#333538"/>
</g>
<defs>
<filter id="filter0_d" x="0.0440063" y="4.30399" width="239.336" height="39.032" filterUnits="userSpaceOnUse" color-interpolation-filters="sRGB">
<feFlood flood-opacity="0" result="BackgroundImageFix"/>
<feColorMatrix in="SourceAlpha" type="matrix" values="0 0 0 0 0 0 0 0 0 0 0 0 0 0 0 0 0 0 127 0"/>
<feOffset dy="4"/>
<feGaussianBlur stdDeviation="2"/>
<feColorMatrix type="matrix" values="0 0 0 0 0 0 0 0 0 0 0 0 0 0 0 0 0 0 0.25 0"/>
<feBlend mode="normal" in2="BackgroundImageFix" result="effect1_dropShadow"/>
<feBlend mode="normal" in="SourceGraphic" in2="effect1_dropShadow" result="shape"/>
</filter>
</defs>
</svg>
