<svg xmlns="http://www.w3.org/2000/svg" xmlns:xlink="http://www.w3.org/1999/xlink" width="1200" height="1200" viewBox="0 0 1200 1200"><svg viewBox="0 0 99.999997 99.999997"><g transform="translate(-149.6453,-589.21878)"><path d="m 199.64552,591.21879 a 48.000099,48.000099 0 0 0 -48.00022,48.00022 48.000099,48.000099 0 0 0 48.00022,47.99977 48.000099,48.000099 0 0 0 47.99977,-47.99977 48.000099,48.000099 0 0 0 -47.99977,-48.00022 z m 0,5.42088 a 42.107528,42.578935 0 0 1 42.10718,42.57934 42.107528,42.578935 0 0 1 -42.10718,42.57887 42.107528,42.578935 0 0 1 -42.10763,-42.57887 42.107528,42.578935 0 0 1 42.10763,-42.57934 z" fill="#666666"></path></g></svg><g transform="translate(600 600) scale(0.69 0.69) rotate(0) translate(-600 -600)" style="fill:#666666"><svg fill="#666666" xmlns="http://www.w3.org/2000/svg" xmlns:xlink="http://www.w3.org/1999/xlink" viewBox="0 0 48 47" version="1.1" x="0px" y="0px"><title>refresh</title><desc>Created with Sketch.</desc><g stroke="none" stroke-width="1" fill="none" fill-rule="evenodd"><g transform="translate(-712.000000, -153.000000)"><g transform="translate(707.000000, 156.000000)"><g transform="translate(29.000000, 21.000000) rotate(-270.000000) translate(-29.000000, -21.000000) translate(8.500000, 1.500000)" stroke="#666666" stroke-width="5.5" stroke-linecap="round"><path d="M11.9293212,0.0213315746 C4.88767757,3.25418829 0,10.34756 0,18.5781576 C0,26.6675243 4.7213789,33.6583582 11.5687496,36.9651672"></path></g><g transform="translate(30.000000, 28.000000) scale(1, -1) rotate(-270.000000) translate(-30.000000, -28.000000) translate(15.500000, 7.500000)" stroke="#666666" stroke-width="5.5" stroke-linecap="round"><path d="M13.1316963,1.59212444 C6.09005266,4.82498115 1.20237508,11.9183529 1.20237508,20.1489505 C1.20237508,28.2383172 5.92375398,35.2291511 12.7711247,38.53596" transform="translate(14.527995, 20.613806) rotate(3.000000) translate(-14.527995, -20.613806) "></path></g><path d="M44.2742357,19.7471082 C43.5704948,20.285038 43,20.0050309 43,19.116845 L43,5.90583953 C43,5.01982494 43.5623258,4.73140223 44.2742357,5.27557634 L52.4661135,11.5373341 C53.1698544,12.075264 53.1780234,12.9411763 52.4661135,13.4853504 L44.2742357,19.7471082 Z" fill="#666666" transform="translate(47.998493, 12.510208) rotate(-300.000000) translate(-47.998493, -12.510208) "></path><path d="M5.77574224,33.0141187 C5.07200128,33.5520486 4.50150651,33.2720414 4.50150651,32.3838555 L4.50150651,19.1728501 C4.50150651,18.2868355 5.06383229,17.9984128 5.77574224,18.5425869 L13.96762,24.8043447 C14.6713609,25.3422745 14.6795299,26.2081868 13.96762,26.7523609 L5.77574224,33.0141187 Z" fill="#666666" transform="translate(9.500000, 25.777219) scale(-1, -1) rotate(-300.000000) translate(-9.500000, -25.777219) "></path></g></g></g></svg></g></svg>