<svg xmlns="http://www.w3.org/2000/svg" xmlns:xlink="http://www.w3.org/1999/xlink" width="1200" height="1200" viewBox="0 0 1200 1200"><svg viewBox="0 0 99.999997 99.999997"><g transform="translate(-149.6453,-589.21878)"><path d="m 199.64552,591.21879 a 48.000099,48.000099 0 0 0 -48.00022,48.00022 48.000099,48.000099 0 0 0 48.00022,47.99977 48.000099,48.000099 0 0 0 47.99977,-47.99977 48.000099,48.000099 0 0 0 -47.99977,-48.00022 z m 0,5.42088 a 42.107528,42.578935 0 0 1 42.10718,42.57934 42.107528,42.578935 0 0 1 -42.10718,42.57887 42.107528,42.578935 0 0 1 -42.10763,-42.57887 42.107528,42.578935 0 0 1 42.10763,-42.57934 z" fill="#666666"></path></g></svg><g transform="translate(600 600) scale(0.69 0.69) rotate(0) translate(-600 -600)" style="fill:#666666"><svg fill="#666666" xmlns="http://www.w3.org/2000/svg" data-name="Layer 138" viewBox="0 0 100 100" x="0px" y="0px"><defs><style>.cls-1{fill-rule:evenodd;}</style></defs><title>Artboard 2 copy 75</title><g><path class="cls-1" d="M94.83,50A44.81,44.81,0,0,0,17.12,19.56V11.15a6,6,0,1,0-12,0v23.9a6,6,0,0,0,6,6H35.06a6,6,0,0,0,0-12H24.64A32.88,32.88,0,1,1,50,82.87h0a6,6,0,1,0,0,12h.12A44.82,44.82,0,0,0,94.83,50Z"></path></g></svg></g></svg>